<?xml version="1.0" encoding="UTF-8" standalone="no"?>
<svg xmlns="http://www.w3.org/2000/svg" xmlns:xlink="http://www.w3.org/1999/xlink" width="495.9375pt" height="661.82812pt" viewBox="0 0 495.93752 661.82811">
  <defs>
    <symbol id="a" overflow="visible">
      <path/>
    </symbol>
    <symbol id="b" overflow="visible">
      <path d="M73.4375 0C61.34375 0 53.417969-1.867188 49.671875-5.609375 45.929688-9.355469 44.0625-17.28125 44.0625-29.375v-603.07812c0-12.08985 1.867188-20.00782 5.609375-23.75 3.746094-3.7461 11.671875-5.625 23.765625-5.625H510.625c12.08984 0 20.00781 1.8789 23.75 5.625 3.74609 3.74218 5.625 11.66015 5.625 23.75V-29.375c0 12.09375-1.87891 20.019531-5.625 23.765625C530.63281-1.867188 522.71484 0 510.625 0Zm5.1875-12.09375h426.8125c9.78906 0 15.98437-1.296875 18.57812-3.890625 2.58985-2.589844 3.89063-8.785156 3.89063-18.578125v-592.70312c0-10.36329-1.30078-16.69532-3.89063-19-2.59375-2.3086-8.78906-3.46875-18.57812-3.46875H78.625c-10.367187 0-16.707031 1.16015-19.015625 3.46875-2.304687 2.30468-3.453125 8.63671-3.453125 19V-34.5625c0 9.792969 1.148438 15.988281 3.453125 18.578125 2.308594 2.59375 8.648438 3.890625 19.015625 3.890625zm205.625-191.8125c-29.94922 0-45.21094-21.88281-45.78125-65.65625-7.49219 0-15.69922-2.01562-24.625-6.04687-8.92969-4.02735-13.39063-8.92579-13.39063-14.6875 0-7.48829 6.33204-11.23438 19-11.23438l13.82813-2.59375c6.33203-15.55078 9.5-33.98437 9.5-55.29687 0-4.02735-1.73047-6.04688-5.1875-6.04688-14.96875 0-25.05078 6.33594-30.23438 19 4.60157 1.73047 6.90625 5.76172 6.90625 12.09375 0 9.21875-6.33593 13.82813-19 13.82813-11.52343 0-17.28125-5.17969-17.28125-15.54688 0-7.48828 4.03125-12.09766 12.09375-13.82812 1.72657-10.94532 6.47657-20.59375 14.25-28.9375 7.77735-8.35157 17.42969-12.81641 28.95313-13.39063-10.36719-18.43359-23.61719-27.65625-39.75-27.65625-16.69922 0-25.91406 11.80859-27.64063 35.42188 6.90235 3.46093 10.35938 8.07031 10.35938 13.82812 0 4.60547-1.73047 8.63672-5.1875 12.09375-3.44922 3.46094-8.05469 5.1875-13.8125 5.1875-5.1875 0-9.80078-1.58203-13.82813-4.75-4.03125-3.16406-6.04687-7.05469-6.04687-11.67187 0-4.60157 1.4375-8.05469 4.3125-10.35938 2.88281-2.30078 4.61328-3.45312 5.1875-3.45312.58203-16.70704 5.19141-30.96094 13.82812-42.76563 8.63282-11.80859 21.88282-17.71875 39.75-17.71875 16.69532 0 33.11329 6.62891 49.25 19.875-.58593-2.88281-1.30859-6.34375-2.17187-10.375-.86719-4.02734-1.29688-8.34766-1.29688-12.95312l4.32813-40.60938-1.73438-12.96875c-6.90625-3.44531-10.35937-8.62891-10.35937-15.54687 0-11.51954 7.48437-17.28125 22.45312-17.28125 14.97657 0 22.46875 5.18359 22.46875 15.54687 0 8.64844-3.45703 13.83594-10.35937 15.5625 0 32.83594 6.04687 62.78906 18.14062 89.85938.57032-12.10157 3.73829-22.61719 9.5-31.54688 5.75782-8.92578 12.09766-16.84375 19.01563-23.75l18.14062-18.15625c5.17579-6.33203 7.76563-12.37891 7.76563-18.14062 0-8.63282-1.15234-14.10157-3.45313-16.40625h-1.71875c-9.21875 0-13.82812-4.32032-13.82812-12.96875 0-12.66407 8.0625-19 24.1875-19 16.70703 0 25.0625 5.47265 25.0625 16.40625 0 8.64843-3.46094 13.83593-10.375 15.5625l1.73437 12.95312c0 14.39844-6.05078 31.10156-18.14062 50.10938-11.52344 19.58593-18.14844 32.54296-19.875 38.875 13.24609-18.9961 31.96875-28.5 56.15625-28.5 16.12109 0 29.36719 5.18359 39.73437 15.54687 10.3711 10.36719 15.5625 22.17578 15.5625 35.42188l-2.59375 24.1875c5.1836 2.3125 7.78125 6.92578 7.78125 13.82812 0 11.52344-7.49218 17.28125-22.46875 17.28125-15.55468 0-23.32812-5.75781-23.32812-17.28125 0-10.93359 5.47266-16.40625 16.42187-16.40625l.85938-5.1875v-10.375c-.57422-5.17578-3.16797-10.92969-7.78125-17.26562-4.60547-6.33985-11.80469-9.51563-21.59375-9.51563-19.58594 0-29.375 12.09766-29.375 36.28125 0 5.76172 1.72656 12.67969 5.1875 20.75 3.44531 8.63672 5.17187 16.98828 5.17187 25.04688 0 15.55468-4.32031 29.08984-12.95312 40.60937-4.60547 29.375-13.39453 51.83984-26.35938 67.39063-12.96093 15.55468-28.08203 23.32812-45.35937 23.32812zm0-6.90625c14.97656 0 27.36328-5.89844 37.15625-17.70312 9.78906-11.8086 17.27344-26.35938 22.45312-43.64063 5.1836-17.27734 7.78125-33.41016 7.78125-48.39062 0-27.64454-19.00781-41.46875-57.01562-41.46875-13.82422 0-29.08984 3.46093-45.79688 10.375l-.85937 8.625 8.64062-2.57813c6.90235 0 10.35938 5.18359 10.35938 15.54688 0 10.94921-4.75391 19.58984-14.25 25.92187-9.5 6.33594-20.58984 9.5-33.26563 9.5-8.0625 0-12.09375 1.44531-12.09375 4.32813 0 3.44921 4.03125 6.61718 12.09375 9.5 8.0586 2.875 15.83594 4.3125 23.32813 4.3125 11.51953 0 21.3125-4.03125 29.375-12.09375l5.1875 5.1875c-8.0625 8.0625-18.72266 12.67578-31.96875 13.82812v6.90625l12.96875 1.73438c21.88281-.58204 39.16016-10.375 51.82812-29.375l4.32813-3.46875c2.87109 0 4.3125 2.88281 4.3125 8.64062 0 38.02344-16.70703 57.03125-50.10938 57.03125-6.33593 0-11.51953-1.44141-15.54687-4.32812 5.75781 14.40625 16.125 21.60937 31.09375 21.60937zm-4.3125-107.14062-2.59375-4.3125 6.04687-8.64063c4.60157-9.21484 8.77344-15.26562 12.51563-18.14062 3.74609-2.88282 8.21875-4.32813 13.40625-4.32813 4.60156 0 8.34766 1.44141 11.23437 4.3125L324-345.59375l-5.1875 3.45313-9.5-4.32813c-6.33594 0-13.53516 6.62891-21.59375 19.875zm-20.73438-6.90625v-1.73438l.85938-3.45312c0-5.75782-2.01953-8.64063-6.04688-8.64063l-6.90625 1.73438v2.57812l-.875 5.1875h3.46875c2.30079 0 5.46875 1.44531 9.5 4.32813zm31.09375 16.40625-6.04687-3.45313c8.64453-16.69531 17.86328-25.04687 27.65625-25.04687 8.63281 0 12.95312 4.03515 12.95312 12.09375 0 4.60546-2.88281 9.5039-8.64062 14.6875-1.73047-5.75782-4.32031-8.64063-7.76563-8.64063-3.46093 0-9.51171 3.45703-18.15625 10.35938zm1.73438-6.04688c6.91406-6.90234 12.96094-10.35937 18.14062-10.35937 3.45704 0 6.05079 2.01953 7.78125 6.04687l.85938-4.32812c0-5.75782-2.58984-8.64063-7.76563-8.64063-5.76171 0-12.67968 5.47656-20.75 16.42188zm-38.875.875 5.1875-6.0625c-3.46094-3.44531-6.63281-5.17187-9.51563-5.17187L245.375-324c2.88281 1.73047 5.47656 5.19141 7.78125 10.375zm-13.82813 8.64063 10.375-5.1875-6.0625-8.64063zm28.51563 69.96875c27.64453 0 42.33203-15.54688 44.0625-46.64063-12.67969 17.85547-30.24609 26.78125-52.70313 26.78125l-12.96875-.875c3.45704 13.82422 10.66016 20.73438 21.60938 20.73438zm0 0"/>
    </symbol>
  </defs>
  <use xlink:href="#a" width="100%" height="100%" x="32.512901" y="735.39221" transform="translate(-77.851398 -59.362854)"/>
  <use xlink:href="#a" width="100%" height="100%" x="324.39691" y="735.39221" transform="translate(-77.851398 -59.362854)"/>
  <use xlink:href="#b" width="100%" height="100%" x="33.788898" y="721.19098" transform="translate(-77.851398 -59.362854)"/>
</svg>